<svg width="10" height="31" viewBox="0 0 10 31" fill="none" xmlns="http://www.w3.org/2000/svg">
<path d="M5.49237 30.7973C5.2279 31.0666 4.79795 31.0677 4.53216 30.7998L0.20015 26.4344C-0.0657478 26.1665 -0.0668435 25.731 0.19763 25.4617C0.462104 25.1925 0.892054 25.1914 1.15784 25.4592L4.32792 28.6537L4.27382 7.27303C2.57549 6.95135 1.3001 5.43125 1.32277 3.62141C1.34807 1.59594 2.98978 -0.0253226 4.9896 0.000300923C6.98931 0.0259244 8.58995 1.68879 8.56465 3.71437C8.54253 5.4856 7.28444 6.94758 5.63178 7.2697L5.68577 28.6502L8.83964 25.4393C9.10411 25.1701 9.53406 25.169 9.79996 25.4368C10.0657 25.7047 10.0668 26.1401 9.80226 26.4094L5.49237 30.7973Z" fill="white"/>
</svg>
