<svg width="28" height="22" viewBox="0 0 28 22" fill="none" xmlns="http://www.w3.org/2000/svg">
<path d="M25.696 0V4.4H23.144C21.032 4.4 19.976 5.456 19.976 7.568V10.384H21.208C22.9093 10.384 24.3173 10.912 25.432 11.968C26.6053 13.024 27.192 14.344 27.192 15.928C27.192 17.6293 26.6053 19.008 25.432 20.064C24.3173 21.12 22.9093 21.648 21.208 21.648C19.5067 21.648 18.0987 21.0907 16.984 19.976C15.8693 18.8613 15.312 17.4533 15.312 15.752V7.568C15.312 2.52267 17.8347 0 22.88 0H25.696ZM10.384 0V4.4H7.832C5.72 4.4 4.664 5.456 4.664 7.568V10.384H5.896C7.59733 10.384 9.00533 10.912 10.12 11.968C11.2933 13.024 11.88 14.344 11.88 15.928C11.88 17.6293 11.2933 19.008 10.12 20.064C9.00533 21.12 7.59733 21.648 5.896 21.648C4.19467 21.648 2.78667 21.0907 1.672 19.976C0.557333 18.8613 0 17.4533 0 15.752V7.568C0 2.52267 2.52267 0 7.568 0H10.384Z" fill="white"/>
</svg>
