<svg width="153" height="43" viewBox="0 0 153 43" fill="none" xmlns="http://www.w3.org/2000/svg">
<g clip-path="url(#clip0_82_18714)">
<mask id="mask0_82_18714" style="mask-type:luminance" maskUnits="userSpaceOnUse" x="0" y="0" width="43" height="43">
<path d="M42.9836 0H0V43H42.9836V0Z" fill="white"/>
</mask>
<g mask="url(#mask0_82_18714)">
<path d="M42.5323 21.5002C42.5323 9.8754 33.1122 0.45166 21.4918 0.45166C9.87155 0.45166 0.451416 9.8754 0.451416 21.5002C0.451416 33.1249 9.87155 42.5487 21.4918 42.5487C33.1122 42.5487 42.5323 33.1249 42.5323 21.5002Z" fill="#314199"/>
<path d="M41.1558 21.5C41.1558 10.6358 32.3518 1.8285 21.4918 1.82846C10.6317 1.82846 1.82776 10.6357 1.82776 21.5C1.8278 32.3642 10.6317 41.1715 21.4918 41.1715C32.3518 41.1715 41.1558 32.3642 41.1558 21.5ZM42.9836 21.5C42.9836 33.374 33.3613 43 21.4918 43C9.62227 43 4.43522e-05 33.374 0 21.5C0 9.62593 9.62225 0 21.4918 0C33.3613 4.43749e-05 42.9836 9.62595 42.9836 21.5Z" fill="white"/>
<path d="M21.0195 8.13003C21.279 7.86906 21.7009 7.86798 21.9617 8.12762L26.2125 12.3583C26.4734 12.6179 26.4745 13.0399 26.2149 13.301C25.9554 13.5619 25.5335 13.5629 25.2727 13.3033L22.1621 10.2074L22.2152 30.9282C23.8817 31.2399 25.1332 32.7131 25.1109 34.4671C25.0861 36.43 23.4752 38.0012 21.5129 37.9764C19.5507 37.9516 17.98 36.34 18.0049 34.377C18.0266 32.6604 19.2611 31.2436 20.8827 30.9314L20.8297 10.2108L17.735 13.3227C17.4755 13.5836 17.0536 13.5847 16.7927 13.325C16.5319 13.0654 16.5308 12.6435 16.7905 12.3825L21.0195 8.13003Z" fill="white"/>
</g>
</g>
<path d="M140.725 36.212V27.7291H142.845V28.6526H143.153C143.301 28.3676 143.546 28.1225 143.888 27.9172C144.23 27.7006 144.68 27.5923 145.238 27.5923C145.843 27.5923 146.327 27.712 146.692 27.9514C147.056 28.1795 147.336 28.4816 147.529 28.8579H147.837C148.031 28.493 148.304 28.1909 148.658 27.9514C149.011 27.712 149.512 27.5923 150.162 27.5923C150.686 27.5923 151.159 27.7063 151.581 27.9343C152.014 28.151 152.356 28.4873 152.607 28.9434C152.869 29.3881 153 29.9524 153 30.6365V36.212H150.846V30.7905C150.846 30.323 150.726 29.9752 150.487 29.7472C150.248 29.5078 149.911 29.3881 149.478 29.3881C148.988 29.3881 148.606 29.5477 148.333 29.8669C148.071 30.1748 147.94 30.6194 147.94 31.2009V36.212H145.786V30.7905C145.786 30.323 145.666 29.9752 145.427 29.7472C145.187 29.5078 144.851 29.3881 144.418 29.3881C143.928 29.3881 143.546 29.5477 143.272 29.8669C143.01 30.1748 142.879 30.6194 142.879 31.2009V36.212H140.725Z" fill="white"/>
<path d="M134.463 36.4515C133.619 36.4515 132.861 36.2805 132.189 35.9384C131.517 35.5964 130.987 35.1004 130.599 34.4505C130.212 33.8006 130.018 33.0196 130.018 32.1074V31.8338C130.018 30.9217 130.212 30.1406 130.599 29.4907C130.987 28.8409 131.517 28.3449 132.189 28.0028C132.861 27.6608 133.619 27.4897 134.463 27.4897C135.306 27.4897 136.064 27.6608 136.737 28.0028C137.409 28.3449 137.939 28.8409 138.326 29.4907C138.714 30.1406 138.908 30.9217 138.908 31.8338V32.1074C138.908 33.0196 138.714 33.8006 138.326 34.4505C137.939 35.1004 137.409 35.5964 136.737 35.9384C136.064 36.2805 135.306 36.4515 134.463 36.4515ZM134.463 34.536C135.124 34.536 135.671 34.3251 136.104 33.9032C136.537 33.4699 136.754 32.8543 136.754 32.0561V31.8851C136.754 31.087 136.537 30.477 136.104 30.0551C135.682 29.6219 135.135 29.4052 134.463 29.4052C133.802 29.4052 133.255 29.6219 132.822 30.0551C132.388 30.477 132.172 31.087 132.172 31.8851V32.0561C132.172 32.8543 132.388 33.4699 132.822 33.9032C133.255 34.3251 133.802 34.536 134.463 34.536Z" fill="white"/>
<path d="M124.565 36.4515C123.745 36.4515 122.998 36.2805 122.326 35.9384C121.665 35.5964 121.14 35.1004 120.753 34.4505C120.365 33.8006 120.172 33.0139 120.172 32.0903V31.8509C120.172 30.9274 120.365 30.1406 120.753 29.4907C121.14 28.8409 121.665 28.3449 122.326 28.0028C122.998 27.6608 123.745 27.4897 124.565 27.4897C125.375 27.4897 126.07 27.6323 126.651 27.9173C127.232 28.2024 127.7 28.5957 128.053 29.0974C128.418 29.5877 128.657 30.1463 128.771 30.7734L126.685 31.2181C126.64 30.8761 126.537 30.5682 126.377 30.2946C126.218 30.0209 125.99 29.8043 125.694 29.6447C125.409 29.485 125.05 29.4052 124.617 29.4052C124.184 29.4052 123.79 29.5021 123.437 29.696C123.095 29.8784 122.822 30.1577 122.616 30.534C122.423 30.8989 122.326 31.3492 122.326 31.8851V32.0561C122.326 32.592 122.423 33.0481 122.616 33.4243C122.822 33.7892 123.095 34.0685 123.437 34.2624C123.79 34.4448 124.184 34.536 124.617 34.536C125.266 34.536 125.756 34.3707 126.087 34.04C126.429 33.698 126.645 33.2533 126.737 32.706L128.822 33.202C128.674 33.8063 128.418 34.3593 128.053 34.861C127.7 35.3512 127.232 35.7389 126.651 36.0239C126.07 36.309 125.375 36.4515 124.565 36.4515Z" fill="white"/>
<path d="M117.112 36.4511C116.656 36.4511 116.268 36.3029 115.949 36.0065C115.641 35.6986 115.488 35.3053 115.488 34.8264C115.488 34.3475 115.641 33.9599 115.949 33.6634C116.268 33.3556 116.656 33.2017 117.112 33.2017C117.579 33.2017 117.966 33.3556 118.274 33.6634C118.582 33.9599 118.736 34.3475 118.736 34.8264C118.736 35.3053 118.582 35.6986 118.274 36.0065C117.966 36.3029 117.579 36.4511 117.112 36.4511Z" fill="white"/>
<path d="M110.029 36.4515C109.185 36.4515 108.439 36.2748 107.789 35.9213C107.151 35.5565 106.65 35.0491 106.285 34.3992C105.932 33.7379 105.755 32.9626 105.755 32.0732V31.868C105.755 30.9787 105.932 30.2091 106.285 29.5592C106.638 28.8979 107.134 28.3905 107.772 28.037C108.41 27.6722 109.151 27.4897 109.995 27.4897C110.827 27.4897 111.55 27.6779 112.166 28.0541C112.781 28.419 113.26 28.9321 113.602 29.5934C113.944 30.2433 114.115 31.0015 114.115 31.868V32.6034H107.943C107.966 33.1849 108.183 33.6581 108.593 34.0229C109.003 34.3878 109.505 34.5702 110.097 34.5702C110.701 34.5702 111.146 34.4391 111.431 34.1769C111.716 33.9146 111.932 33.6239 112.08 33.3046L113.841 34.2282C113.682 34.5246 113.448 34.8496 113.14 35.203C112.844 35.5451 112.445 35.8415 111.944 36.0923C111.442 36.3318 110.804 36.4515 110.029 36.4515ZM107.96 30.9958H111.927C111.881 30.5055 111.682 30.1121 111.328 29.8157C110.986 29.5193 110.536 29.371 109.978 29.371C109.396 29.371 108.935 29.5193 108.593 29.8157C108.251 30.1121 108.04 30.5055 107.96 30.9958Z" fill="white"/>
<path d="M95.4338 39.6326V27.7292H97.5537V28.7553H97.8615C98.0552 28.4247 98.3573 28.1339 98.7676 27.8831C99.1779 27.6209 99.7648 27.4897 100.528 27.4897C101.212 27.4897 101.845 27.6608 102.426 28.0028C103.007 28.3335 103.475 28.8237 103.828 29.4736C104.181 30.1235 104.358 30.9103 104.358 31.8338V32.1074C104.358 33.031 104.181 33.8177 103.828 34.4676C103.475 35.1175 103.007 35.6135 102.426 35.9555C101.845 36.2862 101.212 36.4515 100.528 36.4515C100.016 36.4515 99.5825 36.3888 99.2292 36.2634C98.8872 36.1494 98.608 36.0011 98.3915 35.8187C98.1863 35.6249 98.021 35.431 97.8957 35.2372H97.5879V39.6326H95.4338ZM99.8788 34.5702C100.551 34.5702 101.104 34.3593 101.537 33.9374C101.982 33.5042 102.204 32.8771 102.204 32.0561V31.8851C102.204 31.0642 101.982 30.4428 101.537 30.0209C101.093 29.5877 100.54 29.371 99.8788 29.371C99.2178 29.371 98.665 29.5877 98.2205 30.0209C97.776 30.4428 97.5537 31.0642 97.5537 31.8851V32.0561C97.5537 32.8771 97.776 33.5042 98.2205 33.9374C98.665 34.3593 99.2178 34.5702 99.8788 34.5702Z" fill="white"/>
<path d="M89.1715 36.4515C88.3281 36.4515 87.5702 36.2805 86.8978 35.9384C86.2253 35.5964 85.6953 35.1004 85.3078 34.4505C84.9203 33.8006 84.7266 33.0196 84.7266 32.1074V31.8338C84.7266 30.9217 84.9203 30.1406 85.3078 29.4907C85.6953 28.8409 86.2253 28.3449 86.8978 28.0028C87.5702 27.6608 88.3281 27.4897 89.1715 27.4897C90.0149 27.4897 90.7729 27.6608 91.4453 28.0028C92.1178 28.3449 92.6477 28.8409 93.0352 29.4907C93.4228 30.1406 93.6165 30.9217 93.6165 31.8338V32.1074C93.6165 33.0196 93.4228 33.8006 93.0352 34.4505C92.6477 35.1004 92.1178 35.5964 91.4453 35.9384C90.7729 36.2805 90.0149 36.4515 89.1715 36.4515ZM89.1715 34.536C89.8326 34.536 90.3797 34.3251 90.8128 33.9032C91.2459 33.4699 91.4624 32.8543 91.4624 32.0561V31.8851C91.4624 31.087 91.2459 30.477 90.8128 30.0551C90.3911 29.6219 89.844 29.4052 89.1715 29.4052C88.5105 29.4052 87.9634 29.6219 87.5303 30.0551C87.0972 30.477 86.8807 31.087 86.8807 31.8851V32.0561C86.8807 32.8543 87.0972 33.4699 87.5303 33.9032C87.9634 34.3251 88.5105 34.536 89.1715 34.536Z" fill="white"/>
<path d="M78.8301 36.2119V27.729H80.95V28.6868H81.2577C81.3831 28.3447 81.5882 28.0939 81.8732 27.9343C82.1695 27.7746 82.5114 27.6948 82.8989 27.6948H83.9247V29.6103H82.8647C82.3177 29.6103 81.8675 29.7585 81.5142 30.055C81.1608 30.34 80.9842 30.7847 80.9842 31.389V36.2119H78.8301Z" fill="white"/>
<path d="M71.6975 36.3487C71.0364 36.3487 70.4552 36.2005 69.9537 35.904C69.4636 35.5962 69.0818 35.1743 68.8083 34.6384C68.5347 34.1026 68.3979 33.4869 68.3979 32.7914V27.729H70.5521V32.6203C70.5521 33.2588 70.7059 33.7377 71.0136 34.057C71.3328 34.3762 71.783 34.5358 72.3642 34.5358C73.0253 34.5358 73.5382 34.3192 73.9029 33.8859C74.2676 33.4413 74.4499 32.8256 74.4499 32.0389V27.729H76.604V36.2119H74.4841V35.1002H74.1764C74.0396 35.3853 73.7832 35.6646 73.4071 35.9382C73.031 36.2119 72.4611 36.3487 71.6975 36.3487Z" fill="white"/>
<path d="M59.1025 36.212V24.2402H66.7958V26.2925H61.3592V29.1487H66.3171V31.201H61.3592V34.1597H66.8983V36.212H59.1025Z" fill="white"/>
<path d="M122.761 21.8424V19.9611H127.377C127.696 19.9611 127.856 19.79 127.856 19.448V17.3102H127.548C127.457 17.504 127.315 17.6978 127.121 17.8917C126.927 18.0855 126.665 18.2451 126.334 18.3705C126.004 18.496 125.582 18.5587 125.069 18.5587C124.408 18.5587 123.827 18.4104 123.326 18.114C122.835 17.8062 122.454 17.3843 122.18 16.8484C121.907 16.3125 121.77 15.6968 121.77 15.0013V9.93896H123.924V14.8303C123.924 15.4688 124.078 15.9477 124.385 16.2669C124.705 16.5862 125.155 16.7458 125.736 16.7458C126.397 16.7458 126.91 16.5292 127.275 16.0959C127.639 15.6512 127.822 15.0355 127.822 14.2488V9.93896H129.976V19.9269C129.976 20.5084 129.805 20.9701 129.463 21.3122C129.121 21.6656 128.665 21.8424 128.095 21.8424H122.761Z" fill="white"/>
<path d="M114.992 18.6615C114.388 18.6615 113.846 18.5588 113.368 18.3536C112.889 18.137 112.507 17.8291 112.222 17.4301C111.949 17.0196 111.812 16.5236 111.812 15.9421C111.812 15.3607 111.949 14.8761 112.222 14.4884C112.507 14.0894 112.895 13.7929 113.385 13.5991C113.886 13.3939 114.456 13.2912 115.094 13.2912H117.42V12.8124C117.42 12.4133 117.294 12.0884 117.043 11.8375C116.793 11.5753 116.394 11.4442 115.847 11.4442C115.311 11.4442 114.912 11.5696 114.65 11.8204C114.388 12.0599 114.217 12.3734 114.137 12.7611L112.154 12.0941C112.291 11.6608 112.507 11.2674 112.804 10.914C113.111 10.5491 113.516 10.2584 114.017 10.0418C114.53 9.81372 115.151 9.69971 115.881 9.69971C116.998 9.69971 117.881 9.97905 118.531 10.5377C119.18 11.0964 119.505 11.9059 119.505 12.9663V16.1303C119.505 16.4723 119.665 16.6434 119.984 16.6434H120.668V18.422H119.232C118.81 18.422 118.462 18.3194 118.189 18.1142C117.915 17.9089 117.779 17.6353 117.779 17.2933V17.2761H117.454C117.408 17.413 117.306 17.5954 117.146 17.8234C116.986 18.0401 116.736 18.2339 116.394 18.4049C116.052 18.5759 115.585 18.6615 114.992 18.6615ZM115.368 16.917C115.972 16.917 116.462 16.7517 116.838 16.421C117.226 16.079 117.42 15.6286 117.42 15.0699V14.8989H115.248C114.849 14.8989 114.536 14.9844 114.308 15.1554C114.08 15.3265 113.966 15.5659 113.966 15.8737C113.966 16.1816 114.086 16.4324 114.325 16.6263C114.564 16.8201 114.912 16.917 115.368 16.917Z" fill="white"/>
<path d="M98.1595 18.422L96.5867 6.4502H98.8263L99.9888 16.8486H100.297L101.801 6.4502H105.699L107.203 16.8486H107.511L108.674 6.4502H110.913L109.34 18.422H105.442L103.904 7.7842H103.596L102.057 18.422H98.1595Z" fill="white"/>
<path d="M87.8299 21.8424V19.9611H92.4459C92.765 19.9611 92.9246 19.79 92.9246 19.448V17.3102H92.6168C92.5257 17.504 92.3832 17.6978 92.1894 17.8917C91.9957 18.0855 91.7335 18.2451 91.403 18.3705C91.0725 18.496 90.6508 18.5587 90.1379 18.5587C89.4769 18.5587 88.8956 18.4104 88.3941 18.114C87.904 17.8062 87.5222 17.3843 87.2487 16.8484C86.9751 16.3125 86.8384 15.6968 86.8384 15.0013V9.93896H88.9925V14.8303C88.9925 15.4688 89.1463 15.9477 89.4541 16.2669C89.7732 16.5862 90.2234 16.7458 90.8047 16.7458C91.4657 16.7458 91.9786 16.5292 92.3433 16.0959C92.708 15.6512 92.8904 15.0355 92.8904 14.2488V9.93896H95.0445V19.9269C95.0445 20.5084 94.8735 20.9701 94.5316 21.3122C94.1897 21.6656 93.7338 21.8424 93.1639 21.8424H87.8299Z" fill="white"/>
<path d="M81.6343 18.6615C80.5287 18.6615 79.6226 18.422 78.916 17.9432C78.2094 17.4643 77.782 16.7802 77.6338 15.8908L79.6169 15.3778C79.6967 15.7768 79.8278 16.0904 80.0101 16.3184C80.2039 16.5464 80.4375 16.7118 80.7111 16.8144C80.996 16.9056 81.3037 16.9512 81.6343 16.9512C82.1357 16.9512 82.5062 16.8657 82.7455 16.6947C82.9849 16.5122 83.1045 16.2899 83.1045 16.0277C83.1045 15.7654 82.9905 15.5659 82.7626 15.4291C82.5347 15.2808 82.1699 15.1611 81.6685 15.0699L81.1898 14.9844C80.5971 14.8704 80.0557 14.7165 79.5656 14.5226C79.0756 14.3174 78.6823 14.0381 78.386 13.6846C78.0897 13.3312 77.9415 12.8751 77.9415 12.3164C77.9415 11.4727 78.2492 10.8285 78.8647 10.3838C79.4802 9.92774 80.2894 9.69971 81.2923 9.69971C82.2383 9.69971 83.0247 9.91064 83.6516 10.3325C84.2785 10.7544 84.6888 11.3073 84.8825 11.9915L82.8823 12.6071C82.7911 12.1739 82.603 11.866 82.3181 11.6836C82.0446 11.5012 81.7026 11.41 81.2923 11.41C80.882 11.41 80.5686 11.4841 80.3521 11.6323C80.1355 11.7691 80.0272 11.9629 80.0272 12.2138C80.0272 12.4874 80.1412 12.6927 80.3692 12.8295C80.5971 12.9549 80.9048 13.0518 81.2923 13.1202L81.771 13.2057C82.4093 13.3198 82.9848 13.4737 83.4977 13.6675C84.022 13.8499 84.4323 14.1179 84.7286 14.4713C85.0364 14.8134 85.1902 15.2808 85.1902 15.8737C85.1902 16.7631 84.8654 17.4529 84.2158 17.9432C83.5775 18.422 82.717 18.6615 81.6343 18.6615Z" fill="white"/>
<path d="M71.0993 18.6615C70.4952 18.6615 69.9539 18.5588 69.4752 18.3536C68.9965 18.137 68.6147 17.8291 68.3297 17.4301C68.0562 17.0196 67.9194 16.5236 67.9194 15.9421C67.9194 15.3607 68.0562 14.8761 68.3297 14.4884C68.6147 14.0894 69.0022 13.7929 69.4923 13.5991C69.9938 13.3939 70.5636 13.2912 71.2019 13.2912H73.5269V12.8124C73.5269 12.4133 73.4016 12.0884 73.1508 11.8375C72.9001 11.5753 72.5012 11.4442 71.9541 11.4442C71.4184 11.4442 71.0195 11.5696 70.7574 11.8204C70.4952 12.0599 70.3243 12.3734 70.2445 12.7611L68.2614 12.0941C68.3981 11.6608 68.6147 11.2674 68.911 10.914C69.2187 10.5491 69.6233 10.2584 70.1248 10.0418C70.6377 9.81372 71.2589 9.69971 71.9883 9.69971C73.1052 9.69971 73.9885 9.97905 74.6382 10.5377C75.2878 11.0964 75.6127 11.9059 75.6127 12.9663V16.1303C75.6127 16.4723 75.7722 16.6434 76.0913 16.6434H76.7752V18.422H75.3391C74.9174 18.422 74.5698 18.3194 74.2963 18.1142C74.0227 17.9089 73.886 17.6353 73.886 17.2933V17.2761H73.5611C73.5155 17.413 73.413 17.5954 73.2534 17.8234C73.0938 18.0401 72.8431 18.2339 72.5012 18.4049C72.1593 18.5759 71.692 18.6615 71.0993 18.6615ZM71.4754 16.917C72.0795 16.917 72.5696 16.7517 72.9457 16.421C73.3332 16.079 73.5269 15.6286 73.5269 15.0699V14.8989H71.3557C70.9568 14.8989 70.6434 14.9844 70.4155 15.1554C70.1875 15.3265 70.0735 15.5659 70.0735 15.8737C70.0735 16.1816 70.1932 16.4324 70.4326 16.6263C70.6719 16.8201 71.0195 16.917 71.4754 16.917Z" fill="white"/>
<path d="M59.1025 18.422V6.4502H66.7958V8.5025H61.3592V11.3586H66.3171V13.4109H61.3592V16.3697H66.8983V18.422H59.1025Z" fill="white"/>
<defs>
<clipPath id="clip0_82_18714">
<rect width="42.9836" height="43" fill="white"/>
</clipPath>
</defs>
</svg>
