<svg width="1000" height="1000" viewBox="0 0 1000 1000" fill="none" xmlns="http://www.w3.org/2000/svg">
<rect x="10.5" y="10.5" width="979" height="979" rx="489.5" fill="#314199"/>
<rect x="10.5" y="10.5" width="979" height="979" rx="489.5" stroke="white" stroke-width="21"/>
<path d="M418.878 799.463C418.3 845.114 454.84 882.591 500.491 883.169C546.143 883.747 583.62 847.208 584.198 801.556C584.776 755.904 548.237 718.427 502.585 717.849C456.933 717.271 419.456 753.811 418.878 799.463ZM510.932 189.012C504.863 182.974 495.049 182.999 489.012 189.068L390.623 287.962C384.586 294.03 384.611 303.844 390.68 309.882C396.748 315.92 406.562 315.894 412.6 309.826L500.056 221.92L587.962 309.377C594.03 315.414 603.844 315.389 609.882 309.32C615.92 303.252 615.894 293.438 609.826 287.4L510.932 189.012ZM501.538 800.509L517.038 800.47L515.5 199.96L500 200L484.5 200.04L486.038 800.549L501.538 800.509Z" fill="white"/>
</svg>
