<svg width="201" height="47" viewBox="0 0 201 47" fill="none" xmlns="http://www.w3.org/2000/svg">
<rect x="1" y="1" width="92.5674" height="45" rx="3" fill="#314199"/>
<rect x="1" y="1" width="92.5674" height="45" rx="3" stroke="white" stroke-width="2"/>
<path d="M54.1266 7.03205C54.459 6.69969 54.9979 6.69973 55.3303 7.0321L60.7467 12.4484C61.0791 12.7808 61.079 13.3198 60.7467 13.6521L55.3302 19.0685C54.9979 19.4009 54.459 19.4009 54.1266 19.0685C53.7942 18.7362 53.7943 18.1973 54.1267 17.8649L58.0901 13.9013L15.4766 13.9014C15.0788 15.9985 13.238 17.5859 11.0246 17.5895C8.51762 17.5937 6.48199 15.5647 6.47786 13.0578C6.47373 10.5508 8.50266 8.5152 11.0096 8.51107C13.2282 8.50741 15.0776 10.0961 15.4765 12.1992L58.09 12.1992L54.1266 8.23575C53.7942 7.90338 53.7943 7.36443 54.1266 7.03205Z" fill="white"/>
<path d="M41.8443 39.1781C41.6123 39.1781 41.4151 39.1027 41.2527 38.9519C41.0961 38.7953 41.0178 38.5952 41.0178 38.3516C41.0178 38.108 41.0961 37.9108 41.2527 37.76C41.4151 37.6034 41.6123 37.5251 41.8443 37.5251C42.0821 37.5251 42.2794 37.6034 42.436 37.76C42.5926 37.9108 42.6709 38.108 42.6709 38.3516C42.6709 38.5952 42.5926 38.7953 42.436 38.9519C42.2794 39.1027 42.0821 39.1781 41.8443 39.1781Z" fill="white"/>
<path d="M38.2245 39.1782C37.8069 39.1782 37.427 39.0912 37.0848 38.9172C36.7483 38.7432 36.4815 38.4909 36.2843 38.1602C36.0871 37.8296 35.9885 37.4294 35.9885 36.9596V36.8378C35.9885 36.368 36.0871 35.9678 36.2843 35.6372C36.4815 35.3066 36.7483 35.0543 37.0848 34.8803C37.427 34.7063 37.8069 34.6193 38.2245 34.6193C38.6363 34.6193 38.9901 34.6918 39.2859 34.8368C39.5817 34.9818 39.8195 35.1819 39.9993 35.4371C40.1849 35.6865 40.3067 35.9707 40.3647 36.2897L39.3033 36.5159C39.2801 36.3419 39.2279 36.1853 39.1467 36.0461C39.0655 35.9069 38.9495 35.7967 38.7987 35.7155C38.6537 35.6343 38.471 35.5937 38.2506 35.5937C38.0302 35.5937 37.8301 35.643 37.6503 35.7416C37.4763 35.8344 37.3371 35.9765 37.2327 36.1679C37.1341 36.3535 37.0848 36.5826 37.0848 36.8552V36.9422C37.0848 37.2148 37.1341 37.4468 37.2327 37.6382C37.3371 37.8238 37.4763 37.9659 37.6503 38.0645C37.8301 38.1573 38.0302 38.2037 38.2506 38.2037C38.5812 38.2037 38.8306 38.1196 38.9988 37.9514C39.1728 37.7774 39.283 37.5512 39.3294 37.2728L40.3908 37.5251C40.3154 37.8325 40.1849 38.1138 39.9993 38.369C39.8195 38.6185 39.5817 38.8157 39.2859 38.9607C38.9901 39.1057 38.6363 39.1782 38.2245 39.1782Z" fill="white"/>
<path d="M30.9231 39.0563V34.741H32.0019V35.3066H32.1585C32.2281 35.1558 32.3586 35.0137 32.55 34.8803C32.7414 34.741 33.0314 34.6714 33.4201 34.6714C33.7565 34.6714 34.0494 34.7497 34.2988 34.9064C34.554 35.0572 34.7512 35.2689 34.8904 35.5415C35.0296 35.8083 35.0992 36.1215 35.0992 36.4811V39.0563H34.003V36.5681C34.003 36.2433 33.9218 35.9997 33.7594 35.8373C33.6028 35.6749 33.3766 35.5937 33.0807 35.5937C32.7443 35.5937 32.4833 35.7068 32.2977 35.933C32.1121 36.1534 32.0193 36.4637 32.0193 36.8639V39.0563H30.9231Z" fill="white"/>
<path d="M28.6813 39.0563V32.9662H29.8297V39.0563H28.6813Z" fill="white"/>
<path d="M21.8289 39.0563V32.9662H25.7439V34.0102H22.9773V35.4631H25.5003V36.5072H22.9773V38.0123H25.7961V39.0563H21.8289Z" fill="white"/>
<path d="M14.5866 39.0563L13.7861 32.9662H14.9259L15.5175 38.2559H15.6741L16.4397 32.9662H18.4233L19.189 38.2559H19.3456L19.9372 32.9662H21.0769L20.2765 39.0563H18.2928L17.5098 33.6448H17.3532L16.5702 39.0563H14.5866Z" fill="white"/>
<path d="M9.3689 39.0563V32.9662H13.284V34.0102H10.5173V35.4631H13.0404V36.5072H10.5173V38.0123H13.3362V39.0563H9.3689Z" fill="white"/>
<path d="M188.47 30.6411V22.212H190.577V23.1297H190.883C191.03 22.8464 191.274 22.6029 191.614 22.3989C191.954 22.1837 192.401 22.076 192.956 22.076C193.557 22.076 194.038 22.195 194.401 22.4329C194.763 22.6595 195.041 22.9597 195.233 23.3336H195.539C195.732 22.9711 196.004 22.6708 196.355 22.4329C196.706 22.195 197.205 22.076 197.85 22.076C198.372 22.076 198.842 22.1893 199.261 22.4159C199.692 22.6312 200.031 22.9654 200.281 23.4186C200.541 23.8604 200.671 24.4212 200.671 25.101V30.6411H198.53V25.2539C198.53 24.7894 198.411 24.4439 198.173 24.2173C197.935 23.9794 197.601 23.8604 197.171 23.8604C196.684 23.8604 196.304 24.019 196.032 24.3363C195.772 24.6422 195.641 25.084 195.641 25.6618V30.6411H193.5V25.2539C193.5 24.7894 193.381 24.4439 193.143 24.2173C192.905 23.9794 192.571 23.8604 192.14 23.8604C191.653 23.8604 191.274 24.019 191.002 24.3363C190.741 24.6422 190.611 25.084 190.611 25.6618V30.6411H188.47Z" fill="white"/>
<path d="M182.245 30.879C181.406 30.879 180.653 30.7091 179.984 30.3692C179.316 30.0293 178.789 29.5365 178.404 28.8907C178.019 28.2449 177.826 27.4689 177.826 26.5625V26.2906C177.826 25.3843 178.019 24.6082 178.404 23.9624C178.789 23.3167 179.316 22.8238 179.984 22.4839C180.653 22.1441 181.406 21.9741 182.245 21.9741C183.083 21.9741 183.836 22.1441 184.505 22.4839C185.173 22.8238 185.7 23.3167 186.085 23.9624C186.471 24.6082 186.663 25.3843 186.663 26.2906V26.5625C186.663 27.4689 186.471 28.2449 186.085 28.8907C185.7 29.5365 185.173 30.0293 184.505 30.3692C183.836 30.7091 183.083 30.879 182.245 30.879ZM182.245 28.9757C182.902 28.9757 183.446 28.7661 183.876 28.3469C184.307 27.9164 184.522 27.3046 184.522 26.5115V26.3416C184.522 25.5485 184.307 24.9424 183.876 24.5232C183.457 24.0927 182.913 23.8775 182.245 23.8775C181.588 23.8775 181.044 24.0927 180.613 24.5232C180.183 24.9424 179.967 25.5485 179.967 26.3416V26.5115C179.967 27.3046 180.183 27.9164 180.613 28.3469C181.044 28.7661 181.588 28.9757 182.245 28.9757Z" fill="white"/>
<path d="M172.406 30.879C171.591 30.879 170.849 30.7091 170.18 30.3692C169.523 30.0293 169.002 29.5365 168.617 28.8907C168.231 28.2449 168.039 27.4632 168.039 26.5455V26.3076C168.039 25.3899 168.231 24.6082 168.617 23.9624C169.002 23.3167 169.523 22.8238 170.18 22.4839C170.849 22.1441 171.591 21.9741 172.406 21.9741C173.211 21.9741 173.902 22.1157 174.48 22.399C175.057 22.6822 175.522 23.0731 175.873 23.5716C176.236 24.0587 176.474 24.6139 176.587 25.237L174.514 25.6788C174.468 25.339 174.366 25.0331 174.208 24.7612C174.049 24.4892 173.822 24.274 173.528 24.1154C173.245 23.9568 172.888 23.8775 172.457 23.8775C172.027 23.8775 171.636 23.9738 171.285 24.1664C170.945 24.3476 170.673 24.6252 170.469 24.9991C170.276 25.3616 170.18 25.8091 170.18 26.3416V26.5115C170.18 27.044 170.276 27.4972 170.469 27.8711C170.673 28.2336 170.945 28.5112 171.285 28.7038C171.636 28.8851 172.027 28.9757 172.457 28.9757C173.103 28.9757 173.59 28.8114 173.919 28.4829C174.259 28.143 174.474 27.7011 174.565 27.1573L176.638 27.6502C176.491 28.2506 176.236 28.8001 175.873 29.2986C175.522 29.7857 175.057 30.1709 174.48 30.4542C173.902 30.7374 173.211 30.879 172.406 30.879Z" fill="white"/>
<path d="M164.997 30.879C164.544 30.879 164.159 30.7317 163.841 30.4371C163.536 30.1312 163.383 29.7404 163.383 29.2645C163.383 28.7887 163.536 28.4035 163.841 28.1089C164.159 27.803 164.544 27.6501 164.997 27.6501C165.462 27.6501 165.847 27.803 166.153 28.1089C166.459 28.4035 166.611 28.7887 166.611 29.2645C166.611 29.7404 166.459 30.1312 166.153 30.4371C165.847 30.7317 165.462 30.879 164.997 30.879Z" fill="white"/>
<path d="M157.957 30.879C157.118 30.879 156.376 30.7034 155.73 30.3522C155.096 29.9897 154.597 29.4855 154.235 28.8397C153.884 28.1826 153.708 27.4122 153.708 26.5285V26.3246C153.708 25.4409 153.884 24.6762 154.235 24.0304C154.586 23.3733 155.079 22.8691 155.713 22.5179C156.348 22.1554 157.084 21.9741 157.923 21.9741C158.75 21.9741 159.469 22.1611 160.081 22.5349C160.693 22.8975 161.168 23.4073 161.508 24.0644C161.848 24.7102 162.018 25.4636 162.018 26.3246V27.0554H155.883C155.906 27.6332 156.121 28.1033 156.529 28.4659C156.937 28.8284 157.435 29.0097 158.025 29.0097C158.625 29.0097 159.067 28.8794 159.35 28.6188C159.633 28.3582 159.849 28.0693 159.996 27.7521L161.746 28.6698C161.588 28.9644 161.355 29.2873 161.049 29.6385C160.755 29.9783 160.358 30.2729 159.86 30.5222C159.361 30.7601 158.727 30.879 157.957 30.879ZM155.9 25.4579H159.843C159.798 24.9707 159.599 24.5799 159.248 24.2853C158.908 23.9908 158.461 23.8435 157.906 23.8435C157.328 23.8435 156.869 23.9908 156.529 24.2853C156.189 24.5799 155.98 24.9707 155.9 25.4579Z" fill="white"/>
<path d="M143.449 34.0399V22.212H145.556V23.2317H145.862C146.054 22.9031 146.355 22.6142 146.763 22.365C147.17 22.1044 147.754 21.9741 148.513 21.9741C149.193 21.9741 149.822 22.1441 150.399 22.4839C150.977 22.8125 151.442 23.2997 151.793 23.9454C152.144 24.5912 152.32 25.3729 152.32 26.2906V26.5625C152.32 27.4802 152.144 28.2619 151.793 28.9077C151.442 29.5535 150.977 30.0463 150.399 30.3862C149.822 30.7148 149.193 30.879 148.513 30.879C148.003 30.879 147.573 30.8167 147.221 30.6921C146.882 30.5788 146.604 30.4315 146.389 30.2503C146.185 30.0577 146.021 29.8651 145.896 29.6725H145.59V34.0399H143.449ZM147.867 29.0097C148.536 29.0097 149.085 28.8001 149.516 28.3809C149.957 27.9504 150.178 27.3273 150.178 26.5115V26.3416C150.178 25.5259 149.957 24.9084 149.516 24.4892C149.074 24.0587 148.524 23.8435 147.867 23.8435C147.21 23.8435 146.661 24.0587 146.219 24.4892C145.777 24.9084 145.556 25.5259 145.556 26.3416V26.5115C145.556 27.3273 145.777 27.9504 146.219 28.3809C146.661 28.8001 147.21 29.0097 147.867 29.0097Z" fill="white"/>
<path d="M137.224 30.879C136.385 30.879 135.632 30.7091 134.963 30.3692C134.295 30.0293 133.768 29.5365 133.383 28.8907C132.998 28.2449 132.805 27.4689 132.805 26.5625V26.2906C132.805 25.3843 132.998 24.6082 133.383 23.9624C133.768 23.3167 134.295 22.8238 134.963 22.4839C135.632 22.1441 136.385 21.9741 137.224 21.9741C138.062 21.9741 138.815 22.1441 139.484 22.4839C140.152 22.8238 140.679 23.3167 141.064 23.9624C141.45 24.6082 141.642 25.3843 141.642 26.2906V26.5625C141.642 27.4689 141.45 28.2449 141.064 28.8907C140.679 29.5365 140.152 30.0293 139.484 30.3692C138.815 30.7091 138.062 30.879 137.224 30.879ZM137.224 28.9757C137.881 28.9757 138.425 28.7661 138.855 28.3469C139.286 27.9164 139.501 27.3046 139.501 26.5115V26.3416C139.501 25.5485 139.286 24.9424 138.855 24.5232C138.436 24.0927 137.892 23.8775 137.224 23.8775C136.567 23.8775 136.023 24.0927 135.592 24.5232C135.162 24.9424 134.946 25.5485 134.946 26.3416V26.5115C134.946 27.3046 135.162 27.9164 135.592 28.3469C136.023 28.7661 136.567 28.9757 137.224 28.9757Z" fill="white"/>
<path d="M126.944 30.6411V22.212H129.051V23.1637H129.357C129.482 22.8238 129.686 22.5746 129.969 22.416C130.263 22.2573 130.603 22.178 130.989 22.178H132.008V24.0814H130.955C130.411 24.0814 129.963 24.2287 129.612 24.5232C129.261 24.8065 129.085 25.2483 129.085 25.8488V30.6411H126.944Z" fill="white"/>
<path d="M119.854 30.7771C119.197 30.7771 118.619 30.6298 118.12 30.3352C117.633 30.0293 117.254 29.6101 116.982 29.0777C116.71 28.5452 116.574 27.9334 116.574 27.2423V22.212H118.715V27.0723C118.715 27.7068 118.868 28.1826 119.174 28.4999C119.491 28.8171 119.939 28.9757 120.517 28.9757C121.174 28.9757 121.684 28.7604 122.046 28.3299C122.409 27.8881 122.59 27.2763 122.59 26.4946V22.212H124.731V30.6411H122.624V29.5365H122.318C122.182 29.8197 121.927 30.0973 121.553 30.3692C121.179 30.6411 120.613 30.7771 119.854 30.7771Z" fill="white"/>
<path d="M107.334 30.6411V18.7452H114.981V20.7845H109.577V23.6225H114.505V25.6618H109.577V28.6018H115.083V30.6411H107.334Z" fill="white"/>
<path d="M170.613 18.1541V16.2848H175.202C175.519 16.2848 175.677 16.1148 175.677 15.775V13.6507H175.371C175.281 13.8433 175.139 14.0359 174.947 14.2285C174.754 14.4211 174.493 14.5797 174.165 14.7043C173.836 14.829 173.417 14.8913 172.907 14.8913C172.25 14.8913 171.672 14.744 171.174 14.4494C170.687 14.1435 170.307 13.7243 170.035 13.1919C169.763 12.6594 169.627 12.0476 169.627 11.3565V6.32623H171.769V11.1865C171.769 11.821 171.922 12.2968 172.228 12.6141C172.545 12.9313 172.992 13.0899 173.57 13.0899C174.227 13.0899 174.737 12.8746 175.1 12.4441C175.462 12.0023 175.643 11.3905 175.643 10.6087V6.32623H177.785V16.2508C177.785 16.8286 177.615 17.2874 177.275 17.6273C176.935 17.9785 176.482 18.1541 175.915 18.1541H170.613Z" fill="white"/>
<path d="M162.89 14.9932C162.289 14.9932 161.751 14.8913 161.275 14.6873C160.8 14.4721 160.42 14.1662 160.137 13.7697C159.865 13.3618 159.729 12.869 159.729 12.2912C159.729 11.7134 159.865 11.2319 160.137 10.8467C160.42 10.4501 160.805 10.1556 161.292 9.96297C161.791 9.75904 162.357 9.65708 162.992 9.65708H165.303V9.18125C165.303 8.78472 165.178 8.46183 164.929 8.21258C164.68 7.95201 164.283 7.82172 163.74 7.82172C163.207 7.82172 162.811 7.94634 162.55 8.19559C162.289 8.4335 162.12 8.74506 162.04 9.13026L160.069 8.46749C160.205 8.03698 160.42 7.64611 160.715 7.2949C161.021 6.93236 161.423 6.64346 161.921 6.4282C162.431 6.20161 163.049 6.08832 163.774 6.08832C164.884 6.08832 165.762 6.36589 166.408 6.92103C167.053 7.47617 167.376 8.28056 167.376 9.33419V12.4781C167.376 12.818 167.535 12.9879 167.852 12.9879H168.532V14.7553H167.104C166.685 14.7553 166.34 14.6533 166.068 14.4494C165.796 14.2455 165.66 13.9736 165.66 13.6337V13.6167H165.337C165.292 13.7527 165.19 13.9339 165.031 14.1605C164.873 14.3758 164.623 14.5684 164.283 14.7383C163.944 14.9083 163.479 14.9932 162.89 14.9932ZM163.264 13.2598C163.864 13.2598 164.351 13.0956 164.725 12.767C165.11 12.4271 165.303 11.9796 165.303 11.4245V11.2545H163.145C162.748 11.2545 162.437 11.3395 162.21 11.5094C161.984 11.6794 161.87 11.9173 161.87 12.2232C161.87 12.5291 161.989 12.7783 162.227 12.9709C162.465 13.1635 162.811 13.2598 163.264 13.2598Z" fill="white"/>
<path d="M146.158 14.7553L144.594 2.85944H146.821L147.976 13.1919H148.282L149.778 2.85944H153.652L155.148 13.1919H155.454L156.609 2.85944H158.836L157.272 14.7553H153.397L151.868 4.18498H151.562L150.033 14.7553H146.158Z" fill="white"/>
<path d="M135.89 18.1541V16.2848H140.478C140.795 16.2848 140.954 16.1148 140.954 15.775V13.6507H140.648C140.558 13.8433 140.416 14.0359 140.223 14.2285C140.031 14.4211 139.77 14.5797 139.442 14.7043C139.113 14.829 138.694 14.8913 138.184 14.8913C137.527 14.8913 136.949 14.744 136.451 14.4494C135.963 14.1435 135.584 13.7243 135.312 13.1919C135.04 12.6594 134.904 12.0476 134.904 11.3565V6.32623H137.045V11.1865C137.045 11.821 137.198 12.2968 137.504 12.6141C137.821 12.9313 138.269 13.0899 138.847 13.0899C139.504 13.0899 140.014 12.8746 140.376 12.4441C140.739 12.0023 140.92 11.3905 140.92 10.6087V6.32623H143.061V16.2508C143.061 16.8286 142.891 17.2874 142.552 17.6273C142.212 17.9785 141.758 18.1541 141.192 18.1541H135.89Z" fill="white"/>
<path d="M129.731 14.9932C128.632 14.9932 127.731 14.7553 127.029 14.2795C126.326 13.8036 125.902 13.1239 125.754 12.2402L127.726 11.7304C127.805 12.1269 127.935 12.4384 128.116 12.665C128.309 12.8916 128.541 13.0559 128.813 13.1579C129.096 13.2485 129.402 13.2938 129.731 13.2938C130.229 13.2938 130.598 13.2088 130.836 13.0389C131.073 12.8576 131.192 12.6367 131.192 12.3761C131.192 12.1156 131.079 11.9173 130.853 11.7813C130.626 11.6341 130.263 11.5151 129.765 11.4245L129.289 11.3395C128.7 11.2262 128.162 11.0733 127.675 10.8807C127.187 10.6767 126.797 10.3992 126.502 10.0479C126.207 9.69673 126.06 9.24356 126.06 8.68842C126.06 7.85004 126.366 7.20993 126.978 6.76808C127.59 6.31491 128.394 6.08832 129.391 6.08832C130.331 6.08832 131.113 6.29791 131.736 6.7171C132.359 7.13629 132.767 7.68576 132.96 8.36553L130.971 8.97732C130.881 8.5468 130.694 8.2409 130.411 8.05963C130.139 7.87836 129.799 7.78773 129.391 7.78773C128.983 7.78773 128.672 7.86137 128.456 8.00865C128.241 8.1446 128.133 8.33721 128.133 8.58645C128.133 8.85836 128.247 9.06229 128.473 9.19824C128.7 9.32286 129.006 9.41916 129.391 9.48714L129.867 9.57211C130.501 9.6854 131.073 9.83835 131.583 10.031C132.104 10.2122 132.512 10.4785 132.807 10.8297C133.113 11.1696 133.266 11.6341 133.266 12.2232C133.266 13.1069 132.943 13.7923 132.297 14.2795C131.663 14.7553 130.807 14.9932 129.731 14.9932Z" fill="white"/>
<path d="M119.259 14.9932C118.658 14.9932 118.12 14.8913 117.644 14.6873C117.169 14.4721 116.789 14.1662 116.506 13.7697C116.234 13.3618 116.098 12.869 116.098 12.2912C116.098 11.7134 116.234 11.2319 116.506 10.8467C116.789 10.4501 117.174 10.1556 117.661 9.96297C118.16 9.75904 118.726 9.65708 119.361 9.65708H121.672V9.18125C121.672 8.78472 121.547 8.46183 121.298 8.21258C121.049 7.95201 120.652 7.82172 120.109 7.82172C119.576 7.82172 119.18 7.94634 118.919 8.19559C118.658 8.4335 118.489 8.74506 118.409 9.13026L116.438 8.46749C116.574 8.03698 116.789 7.64611 117.084 7.2949C117.39 6.93236 117.792 6.64346 118.29 6.4282C118.8 6.20161 119.418 6.08832 120.143 6.08832C121.253 6.08832 122.131 6.36589 122.777 6.92103C123.422 7.47617 123.745 8.28056 123.745 9.33419V12.4781C123.745 12.818 123.904 12.9879 124.221 12.9879H124.901V14.7553H123.473C123.054 14.7553 122.709 14.6533 122.437 14.4494C122.165 14.2455 122.029 13.9736 122.029 13.6337V13.6167H121.706C121.661 13.7527 121.559 13.9339 121.4 14.1605C121.242 14.3758 120.992 14.5684 120.652 14.7383C120.313 14.9083 119.848 14.9932 119.259 14.9932ZM119.633 13.2598C120.233 13.2598 120.72 13.0956 121.094 12.767C121.479 12.4271 121.672 11.9796 121.672 11.4245V11.2545H119.514C119.117 11.2545 118.806 11.3395 118.579 11.5094C118.353 11.6794 118.239 11.9173 118.239 12.2232C118.239 12.5291 118.358 12.7783 118.596 12.9709C118.834 13.1635 119.18 13.2598 119.633 13.2598Z" fill="white"/>
<path d="M107.334 14.7553V2.85944H114.981V4.89873H109.577V7.73674H114.505V9.77604H109.577V12.716H115.083V14.7553H107.334Z" fill="white"/>
<path d="M183.005 42.874C182.873 42.874 182.762 42.8309 182.671 42.7446C182.585 42.6584 182.542 42.5472 182.542 42.411C182.542 42.2748 182.585 42.1636 182.671 42.0774C182.762 41.9911 182.873 41.948 183.005 41.948C183.141 41.948 183.252 41.9911 183.339 42.0774C183.425 42.1636 183.468 42.2748 183.468 42.411C183.468 42.5472 183.425 42.6584 183.339 42.7446C183.252 42.8309 183.141 42.874 183.005 42.874Z" fill="white"/>
<path d="M178.445 44.1405V39.4492H178.969V40.0007H179.064C179.151 39.8328 179.289 39.683 179.48 39.5513C179.675 39.4197 179.945 39.3539 180.29 39.3539C180.576 39.3539 180.837 39.4242 181.073 39.565C181.314 39.7011 181.504 39.8963 181.645 40.1505C181.79 40.4047 181.863 40.7111 181.863 41.0697V41.1582C181.863 41.5123 181.793 41.8187 181.652 42.0774C181.511 42.3362 181.32 42.5336 181.08 42.6698C180.844 42.806 180.581 42.8741 180.29 42.8741C180.059 42.8741 179.861 42.8423 179.698 42.7787C179.539 42.7197 179.409 42.6426 179.31 42.5472C179.21 42.4519 179.133 42.3543 179.078 42.2545H178.983V44.1405H178.445ZM180.147 42.3974C180.492 42.3974 180.771 42.2885 180.985 42.0706C181.202 41.8482 181.311 41.5395 181.311 41.1446V41.0833C181.311 40.6884 181.202 40.382 180.985 40.1641C180.771 39.9417 180.492 39.8305 180.147 39.8305C179.807 39.8305 179.525 39.9417 179.303 40.1641C179.085 40.382 178.976 40.6884 178.976 41.0833V41.1446C178.976 41.5395 179.085 41.8482 179.303 42.0706C179.525 42.2885 179.807 42.3974 180.147 42.3974Z" fill="white"/>
<path d="M176.844 42.7787V38.0125H177.382V42.7787H176.844Z" fill="white"/>
<path d="M174.408 42.8741C174.072 42.8741 173.777 42.8037 173.523 42.663C173.268 42.5177 173.071 42.3157 172.93 42.057C172.79 41.7983 172.719 41.4987 172.719 41.1582V41.0765C172.719 40.7315 172.79 40.4297 172.93 40.1709C173.071 39.9122 173.266 39.7125 173.516 39.5718C173.766 39.4265 174.052 39.3539 174.374 39.3539C174.687 39.3539 174.964 39.422 175.204 39.5581C175.445 39.6898 175.633 39.8804 175.77 40.1301C175.906 40.3797 175.974 40.6725 175.974 41.0084V41.2536H173.257C173.271 41.6122 173.387 41.8936 173.604 42.0978C173.822 42.2976 174.095 42.3974 174.421 42.3974C174.707 42.3974 174.928 42.3316 175.082 42.2C175.236 42.0683 175.354 41.9117 175.436 41.7302L175.899 41.9549C175.831 42.0956 175.736 42.2363 175.613 42.377C175.495 42.5177 175.338 42.6357 175.143 42.7311C174.953 42.8264 174.707 42.8741 174.408 42.8741ZM173.264 40.811H175.429C175.411 40.5023 175.304 40.2617 175.109 40.0892C174.919 39.9167 174.673 39.8305 174.374 39.8305C174.07 39.8305 173.82 39.9167 173.625 40.0892C173.43 40.2617 173.309 40.5023 173.264 40.811Z" fill="white"/>
<path d="M168.775 42.7787V38.0125H169.313V39.9803H169.408C169.454 39.8804 169.522 39.7874 169.613 39.7011C169.708 39.6103 169.828 39.5354 169.974 39.4764C170.123 39.4174 170.312 39.3879 170.539 39.3879C170.788 39.3879 171.011 39.4424 171.206 39.5513C171.406 39.6557 171.565 39.81 171.683 40.0143C171.801 40.214 171.86 40.4637 171.86 40.7633V42.7787H171.322V40.8041C171.322 40.4728 171.238 40.2322 171.07 40.0824C170.906 39.9326 170.684 39.8577 170.402 39.8577C170.08 39.8577 169.817 39.9621 169.613 40.1709C169.413 40.3797 169.313 40.6907 169.313 41.1037V42.7787H168.775Z" fill="white"/>
<path d="M164.658 42.8741C164.322 42.8741 164.027 42.8037 163.773 42.663C163.519 42.5177 163.321 42.3157 163.181 42.057C163.04 41.7983 162.969 41.4987 162.969 41.1582V41.0765C162.969 40.7315 163.04 40.4297 163.181 40.1709C163.321 39.9122 163.516 39.7125 163.766 39.5718C164.016 39.4265 164.302 39.3539 164.624 39.3539C164.937 39.3539 165.214 39.422 165.455 39.5581C165.695 39.6898 165.884 39.8804 166.02 40.1301C166.156 40.3797 166.224 40.6725 166.224 41.0084V41.2536H163.507C163.521 41.6122 163.637 41.8936 163.855 42.0978C164.073 42.2976 164.345 42.3974 164.672 42.3974C164.958 42.3974 165.178 42.3316 165.332 42.2C165.486 42.0683 165.605 41.9117 165.686 41.7302L166.149 41.9549C166.081 42.0956 165.986 42.2363 165.863 42.377C165.745 42.5177 165.589 42.6357 165.393 42.7311C165.203 42.8264 164.958 42.8741 164.658 42.8741ZM163.514 40.811H165.679C165.661 40.5023 165.555 40.2617 165.359 40.0892C165.169 39.9167 164.924 39.8305 164.624 39.8305C164.32 39.8305 164.07 39.9167 163.875 40.0892C163.68 40.2617 163.56 40.5023 163.514 40.811Z" fill="white"/>
<path d="M157.8 42.7787L157.023 38.0125H157.595L158.269 42.411H158.365L159.243 38.0125H160.264L161.136 42.411H161.231L161.905 38.0125H162.477L161.701 42.7787H160.68L159.801 38.353H159.706L158.828 42.7787H157.8Z" fill="white"/>
<path d="M154.567 42.874C154.436 42.874 154.324 42.8309 154.234 42.7446C154.147 42.6584 154.104 42.5472 154.104 42.411C154.104 42.2748 154.147 42.1636 154.234 42.0774C154.324 41.9911 154.436 41.948 154.567 41.948C154.703 41.948 154.815 41.9911 154.901 42.0774C154.987 42.1636 155.03 42.2748 155.03 42.411C155.03 42.5472 154.987 42.6584 154.901 42.7446C154.815 42.8309 154.703 42.874 154.567 42.874Z" fill="white"/>
<path d="M151.885 42.8741C151.549 42.8741 151.254 42.8037 151 42.663C150.746 42.5177 150.548 42.3157 150.407 42.057C150.267 41.7983 150.196 41.4987 150.196 41.1582V41.0765C150.196 40.7315 150.267 40.4297 150.407 40.1709C150.548 39.9122 150.743 39.7125 150.993 39.5718C151.243 39.4265 151.529 39.3539 151.851 39.3539C152.164 39.3539 152.441 39.422 152.682 39.5581C152.922 39.6898 153.11 39.8804 153.247 40.1301C153.383 40.3797 153.451 40.6725 153.451 41.0084V41.2536H150.734C150.748 41.6122 150.864 41.8936 151.081 42.0978C151.299 42.2976 151.572 42.3974 151.899 42.3974C152.184 42.3974 152.405 42.3316 152.559 42.2C152.713 42.0683 152.831 41.9117 152.913 41.7302L153.376 41.9549C153.308 42.0956 153.213 42.2363 153.09 42.377C152.972 42.5177 152.815 42.6357 152.62 42.7311C152.43 42.8264 152.184 42.8741 151.885 42.8741ZM150.741 40.811H152.906C152.888 40.5023 152.781 40.2617 152.586 40.0892C152.396 39.9167 152.15 39.8305 151.851 39.8305C151.547 39.8305 151.297 39.9167 151.102 40.0892C150.907 40.2617 150.786 40.5023 150.741 40.811Z" fill="white"/>
<path d="M146.046 44.1405V39.4492H146.57V40.0007H146.665C146.752 39.8328 146.89 39.683 147.081 39.5513C147.276 39.4197 147.546 39.3539 147.891 39.3539C148.177 39.3539 148.438 39.4242 148.674 39.565C148.914 39.7011 149.105 39.8963 149.246 40.1505C149.391 40.4047 149.464 40.7111 149.464 41.0697V41.1582C149.464 41.5123 149.393 41.8187 149.253 42.0774C149.112 42.3362 148.921 42.5336 148.681 42.6698C148.445 42.806 148.181 42.8741 147.891 42.8741C147.659 42.8741 147.462 42.8423 147.298 42.7787C147.14 42.7197 147.01 42.6426 146.91 42.5472C146.811 42.4519 146.733 42.3543 146.679 42.2545H146.584V44.1405H146.046ZM147.748 42.3974C148.093 42.3974 148.372 42.2885 148.585 42.0706C148.803 41.8482 148.912 41.5395 148.912 41.1446V41.0833C148.912 40.6884 148.803 40.382 148.585 40.1641C148.372 39.9417 148.093 39.8305 147.748 39.8305C147.407 39.8305 147.126 39.9417 146.904 40.1641C146.686 40.382 146.577 40.6884 146.577 41.0833V41.1446C146.577 41.5395 146.686 41.8482 146.904 42.0706C147.126 42.2885 147.407 42.3974 147.748 42.3974Z" fill="white"/>
<path d="M143.444 42.8741C143.108 42.8741 142.811 42.8037 142.552 42.663C142.298 42.5223 142.098 42.3248 141.953 42.0706C141.812 41.8119 141.742 41.5077 141.742 41.1582V41.0697C141.742 40.7247 141.812 40.4229 141.953 40.1641C142.098 39.9054 142.298 39.7057 142.552 39.565C142.811 39.4242 143.108 39.3539 143.444 39.3539C143.78 39.3539 144.075 39.4242 144.329 39.565C144.588 39.7057 144.787 39.9054 144.928 40.1641C145.073 40.4229 145.146 40.7247 145.146 41.0697V41.1582C145.146 41.5077 145.073 41.8119 144.928 42.0706C144.787 42.3248 144.588 42.5223 144.329 42.663C144.075 42.8037 143.78 42.8741 143.444 42.8741ZM143.444 42.3906C143.798 42.3906 144.079 42.2794 144.288 42.057C144.501 41.83 144.608 41.5259 144.608 41.1446V41.0833C144.608 40.702 144.501 40.4002 144.288 40.1778C144.079 39.9508 143.798 39.8373 143.444 39.8373C143.094 39.8373 142.813 39.9508 142.599 40.1778C142.386 40.4002 142.279 40.702 142.279 41.0833V41.1446C142.279 41.5259 142.386 41.83 142.599 42.057C142.813 42.2794 143.094 42.3906 143.444 42.3906Z" fill="white"/>
<path d="M139.526 42.7787V39.4492H140.05V39.8577H140.146C140.205 39.7124 140.295 39.6058 140.418 39.5377C140.541 39.4696 140.702 39.4355 140.901 39.4355H141.296V39.9258H140.867C140.627 39.9258 140.432 39.9939 140.282 40.13C140.137 40.2617 140.064 40.4682 140.064 40.7497V42.7787H139.526Z" fill="white"/>
<path d="M136.698 42.84C136.458 42.84 136.235 42.7878 136.031 42.6834C135.831 42.579 135.673 42.4246 135.554 42.2204C135.441 42.0116 135.384 41.7596 135.384 41.4646V39.4492H135.922V41.4237C135.922 41.7551 136.004 41.9957 136.167 42.1455C136.335 42.2953 136.56 42.3702 136.841 42.3702C137.159 42.3702 137.42 42.2658 137.624 42.0569C137.829 41.8481 137.931 41.5372 137.931 41.1241V39.4492H138.469V42.7787H137.944V42.2136H137.849C137.776 42.3724 137.652 42.5177 137.475 42.6493C137.298 42.7764 137.039 42.84 136.698 42.84Z" fill="white"/>
<path d="M131.636 42.7787V38.0125H134.571V38.53H132.208V40.1233H134.38V40.6407H132.208V42.2612H134.605V42.7787H131.636Z" fill="white"/>
<path d="M125.868 42.7787V39.4492H126.392V40.0144H126.488C126.56 39.8555 126.683 39.7125 126.855 39.5854C127.032 39.4538 127.291 39.3879 127.632 39.3879C127.881 39.3879 128.104 39.4401 128.299 39.5445C128.499 39.6489 128.657 39.8033 128.775 40.0075C128.893 40.2118 128.952 40.4637 128.952 40.7633V42.7787H128.415V40.8042C128.415 40.4728 128.331 40.2322 128.163 40.0824C127.999 39.9326 127.777 39.8578 127.495 39.8578C127.173 39.8578 126.91 39.9622 126.706 40.171C126.506 40.3798 126.406 40.6907 126.406 41.1038V42.7787H125.868Z" fill="white"/>
<path d="M124.267 42.7787V39.4492H124.805V42.7787H124.267ZM124.54 38.9317C124.422 38.9317 124.322 38.8931 124.24 38.816C124.163 38.7388 124.124 38.6412 124.124 38.5232C124.124 38.4006 124.163 38.3008 124.24 38.2236C124.322 38.1464 124.422 38.1078 124.54 38.1078C124.658 38.1078 124.755 38.1464 124.832 38.2236C124.91 38.3008 124.948 38.4006 124.948 38.5232C124.948 38.6412 124.91 38.7388 124.832 38.816C124.755 38.8931 124.658 38.9317 124.54 38.9317Z" fill="white"/>
<path d="M118.887 44.1405V43.6638H120.794C120.926 43.6638 120.991 43.5957 120.991 43.4596V42.2476H120.896C120.851 42.3429 120.78 42.4382 120.685 42.5336C120.594 42.6244 120.474 42.6992 120.324 42.7583C120.174 42.8127 119.986 42.84 119.759 42.84C119.518 42.84 119.296 42.7878 119.092 42.6834C118.892 42.579 118.733 42.4246 118.615 42.2204C118.502 42.0161 118.445 41.7664 118.445 41.4714V39.4492H118.983V41.4305C118.983 41.7574 119.064 41.9957 119.228 42.1455C119.396 42.2953 119.62 42.3702 119.902 42.3702C120.22 42.3702 120.481 42.2658 120.685 42.0569C120.889 41.8481 120.991 41.5372 120.991 41.1241V39.4492H121.529V43.5549C121.529 43.7365 121.477 43.8795 121.373 43.9839C121.273 44.0883 121.125 44.1405 120.93 44.1405H118.887Z" fill="white"/>
<path d="M115.745 42.8741C115.514 42.8741 115.302 42.8332 115.112 42.7515C114.921 42.6698 114.771 42.5518 114.662 42.3974C114.553 42.2431 114.499 42.0547 114.499 41.8323C114.499 41.6053 114.553 41.4192 114.662 41.274C114.771 41.1242 114.921 41.013 115.112 40.9403C115.302 40.8632 115.516 40.8246 115.752 40.8246H116.875V40.5795C116.875 40.3434 116.805 40.1573 116.664 40.0211C116.528 39.885 116.324 39.8169 116.051 39.8169C115.784 39.8169 115.575 39.8827 115.425 40.0143C115.275 40.1414 115.173 40.3139 115.119 40.5318L114.615 40.3684C114.669 40.1823 114.755 40.0143 114.874 39.8645C114.992 39.7102 115.148 39.5877 115.343 39.4969C115.543 39.4015 115.781 39.3539 116.058 39.3539C116.485 39.3539 116.816 39.4651 117.052 39.6875C117.288 39.9054 117.406 40.2141 117.406 40.6135V42.1183C117.406 42.2545 117.47 42.3225 117.597 42.3225H117.903V42.7787H117.434C117.284 42.7787 117.164 42.7379 117.073 42.6562C116.982 42.5699 116.937 42.4564 116.937 42.3157V42.2817H116.855C116.805 42.3679 116.737 42.4587 116.651 42.554C116.569 42.6448 116.455 42.7197 116.31 42.7787C116.165 42.8423 115.977 42.8741 115.745 42.8741ZM115.806 42.4111C116.124 42.4111 116.381 42.318 116.576 42.1319C116.775 41.9412 116.875 41.6757 116.875 41.3353V41.2604H115.772C115.559 41.2604 115.382 41.308 115.241 41.4033C115.105 41.4941 115.037 41.6326 115.037 41.8187C115.037 42.0048 115.107 42.1501 115.248 42.2545C115.393 42.3589 115.579 42.4111 115.806 42.4111Z" fill="white"/>
<path d="M112.906 42.7787C112.715 42.7787 112.567 42.7265 112.463 42.6221C112.363 42.5177 112.313 42.3747 112.313 42.1932V39.919H111.312V39.4492H112.313V38.2645H112.851V39.4492H113.94V39.919H112.851V42.1115C112.851 42.2476 112.917 42.3157 113.049 42.3157H113.791V42.7787H112.906Z" fill="white"/>
<path d="M109.138 42.8741C108.793 42.8741 108.485 42.8128 108.212 42.6902C107.94 42.5677 107.724 42.3838 107.565 42.1387C107.411 41.8891 107.334 41.5781 107.334 41.2059V41.0629H107.899V41.2059C107.899 41.6008 108.015 41.8959 108.246 42.0911C108.478 42.2817 108.775 42.377 109.138 42.377C109.511 42.377 109.794 42.2931 109.989 42.1251C110.185 41.9572 110.282 41.7461 110.282 41.4919C110.282 41.3149 110.237 41.1741 110.146 41.0697C110.06 40.9653 109.937 40.8814 109.778 40.8178C109.619 40.7497 109.433 40.6907 109.22 40.6408L108.866 40.5523C108.589 40.4796 108.344 40.3911 108.131 40.2867C107.917 40.1823 107.749 40.0461 107.627 39.8782C107.509 39.7057 107.45 39.4855 107.45 39.2177C107.45 38.9499 107.516 38.7184 107.647 38.5232C107.783 38.328 107.972 38.1782 108.212 38.0738C108.457 37.9694 108.739 37.9172 109.057 37.9172C109.379 37.9172 109.667 37.974 109.921 38.0875C110.18 38.1964 110.382 38.3598 110.527 38.5777C110.677 38.791 110.752 39.0611 110.752 39.3879V39.6739H110.187V39.3879C110.187 39.1564 110.137 38.9703 110.037 38.8296C109.942 38.6889 109.808 38.5845 109.635 38.5164C109.467 38.4483 109.275 38.4143 109.057 38.4143C108.743 38.4143 108.491 38.4846 108.301 38.6254C108.11 38.7615 108.015 38.9567 108.015 39.2109C108.015 39.3789 108.056 39.515 108.137 39.6194C108.219 39.7239 108.335 39.8101 108.485 39.8782C108.634 39.9417 108.814 39.9985 109.023 40.0484L109.377 40.1369C109.654 40.1959 109.901 40.2776 110.119 40.382C110.341 40.4819 110.518 40.6204 110.65 40.7974C110.782 40.9699 110.847 41.1968 110.847 41.4783C110.847 41.7597 110.777 42.0048 110.636 42.2136C110.496 42.4224 110.296 42.5858 110.037 42.7039C109.783 42.8173 109.483 42.8741 109.138 42.8741Z" fill="white"/>
</svg>
