<svg width="88" height="88" viewBox="0 0 88 88" fill="none" xmlns="http://www.w3.org/2000/svg">
<g clip-path="url(#clip0_77_17747)">
<rect width="88" height="88" rx="4" fill="#314199"/>
<path d="M70.6626 78.7716V72.2533H72.2922V72.963H72.5287C72.6426 72.7439 72.831 72.5556 73.0938 72.3979C73.3566 72.2314 73.7027 72.1482 74.132 72.1482C74.5963 72.1482 74.9687 72.2402 75.249 72.4242C75.5294 72.5994 75.744 72.8316 75.893 73.1207H76.1295C76.2784 72.8403 76.4887 72.6081 76.7603 72.4242C77.0319 72.2402 77.4174 72.1482 77.9168 72.1482C78.3198 72.1482 78.6834 72.2358 79.0075 72.411C79.3404 72.5775 79.6033 72.8359 79.796 73.1864C79.9975 73.5281 80.0983 73.9617 80.0983 74.4874V78.7716H78.4424V74.6057C78.4424 74.2465 78.3504 73.9793 78.1665 73.804C77.9825 73.6201 77.724 73.5281 77.3911 73.5281C77.0144 73.5281 76.7209 73.6507 76.5106 73.896C76.3091 74.1326 76.2084 74.4743 76.2084 74.9211V78.7716H74.5525V74.6057C74.5525 74.2465 74.4605 73.9793 74.2765 73.804C74.0926 73.6201 73.8341 73.5281 73.5012 73.5281C73.1245 73.5281 72.831 73.6507 72.6207 73.896C72.4192 74.1326 72.3184 74.4743 72.3184 74.9211V78.7716H70.6626Z" fill="white"/>
<path d="M65.8487 78.9555C65.2004 78.9555 64.6178 78.8241 64.1009 78.5613C63.584 78.2985 63.1766 77.9174 62.8787 77.418C62.5808 76.9186 62.4319 76.3185 62.4319 75.6176V75.4073C62.4319 74.7064 62.5808 74.1063 62.8787 73.6069C63.1766 73.1075 63.584 72.7264 64.1009 72.4636C64.6178 72.2008 65.2004 72.0693 65.8487 72.0693C66.497 72.0693 67.0796 72.2008 67.5965 72.4636C68.1134 72.7264 68.5208 73.1075 68.8187 73.6069C69.1166 74.1063 69.2655 74.7064 69.2655 75.4073V75.6176C69.2655 76.3185 69.1166 76.9186 68.8187 77.418C68.5208 77.9174 68.1134 78.2985 67.5965 78.5613C67.0796 78.8241 66.497 78.9555 65.8487 78.9555ZM65.8487 77.4837C66.3568 77.4837 66.7774 77.3216 67.1103 76.9974C67.4432 76.6645 67.6097 76.1914 67.6097 75.5781V75.4467C67.6097 74.8335 67.4432 74.3647 67.1103 74.0406C66.7861 73.7077 66.3656 73.5412 65.8487 73.5412C65.3406 73.5412 64.92 73.7077 64.5871 74.0406C64.2542 74.3647 64.0877 74.8335 64.0877 75.4467V75.5781C64.0877 76.1914 64.2542 76.6645 64.5871 76.9974C64.92 77.3216 65.3406 77.4837 65.8487 77.4837Z" fill="white"/>
<path d="M58.2407 78.9555C57.6099 78.9555 57.036 78.8241 56.5191 78.5613C56.011 78.2985 55.608 77.9174 55.3101 77.418C55.0122 76.9186 54.8633 76.3141 54.8633 75.6044V75.4204C54.8633 74.7108 55.0122 74.1063 55.3101 73.6069C55.608 73.1075 56.011 72.7264 56.5191 72.4636C57.036 72.2008 57.6099 72.0693 58.2407 72.0693C58.8627 72.0693 59.3971 72.1788 59.844 72.3979C60.2908 72.6169 60.65 72.9192 60.9216 73.3046C61.2019 73.6814 61.3859 74.1107 61.4735 74.5925L59.8702 74.9342C59.8352 74.6714 59.7563 74.4348 59.6337 74.2246C59.511 74.0143 59.3358 73.8478 59.108 73.7252C58.889 73.6025 58.613 73.5412 58.2801 73.5412C57.9472 73.5412 57.6449 73.6157 57.3733 73.7646C57.1105 73.9048 56.9002 74.1194 56.7425 74.4085C56.5936 74.6889 56.5191 75.035 56.5191 75.4467V75.5781C56.5191 75.9899 56.5936 76.3404 56.7425 76.6295C56.9002 76.9098 57.1105 77.1245 57.3733 77.2734C57.6449 77.4136 57.9472 77.4837 58.2801 77.4837C58.7795 77.4837 59.1562 77.3566 59.4103 77.1026C59.6731 76.8397 59.8396 76.4981 59.9097 76.0775L61.5129 76.4586C61.399 76.923 61.2019 77.3479 60.9216 77.7334C60.65 78.1101 60.2908 78.408 59.844 78.627C59.3971 78.846 58.8627 78.9555 58.2407 78.9555Z" fill="white"/>
<path d="M52.5109 78.9554C52.1605 78.9554 51.8626 78.8415 51.6173 78.6137C51.3807 78.3772 51.2625 78.0749 51.2625 77.7069C51.2625 77.339 51.3807 77.0411 51.6173 76.8133C51.8626 76.5768 52.1605 76.4585 52.5109 76.4585C52.8701 76.4585 53.168 76.5768 53.4045 76.8133C53.6411 77.0411 53.7594 77.339 53.7594 77.7069C53.7594 78.0749 53.6411 78.3772 53.4045 78.6137C53.168 78.8415 52.8701 78.9554 52.5109 78.9554Z" fill="white"/>
<path d="M47.0664 78.9555C46.4181 78.9555 45.8442 78.8197 45.3449 78.5481C44.8542 78.2678 44.4688 77.8779 44.1884 77.3785C43.9168 76.8704 43.781 76.2746 43.781 75.5913V75.4336C43.781 74.7502 43.9168 74.1589 44.1884 73.6595C44.46 73.1513 44.8411 72.7615 45.3317 72.4899C45.8223 72.2095 46.3918 72.0693 47.0401 72.0693C47.6797 72.0693 48.236 72.2139 48.7091 72.503C49.1822 72.7834 49.5502 73.1776 49.813 73.6858C50.0758 74.1851 50.2073 74.7677 50.2073 75.4336V75.9987H45.4631C45.4807 76.4455 45.6471 76.8091 45.9625 77.0894C46.2779 77.3698 46.6634 77.51 47.119 77.51C47.5833 77.51 47.925 77.4092 48.144 77.2077C48.363 77.0062 48.5295 76.7828 48.6434 76.5375L49.997 77.2471C49.8743 77.4749 49.6947 77.7246 49.4582 77.9962C49.2304 78.259 48.9238 78.4868 48.5383 78.6796C48.1528 78.8635 47.6622 78.9555 47.0664 78.9555ZM45.4763 74.7634H48.5251C48.4901 74.3866 48.3368 74.0844 48.0652 73.8566C47.8023 73.6288 47.4563 73.5149 47.027 73.5149C46.5802 73.5149 46.2253 73.6288 45.9625 73.8566C45.6997 74.0844 45.5376 74.3866 45.4763 74.7634Z" fill="white"/>
<path d="M35.8477 81.3999V72.2533H37.4772V73.0418H37.7138C37.8627 72.7877 38.0949 72.5643 38.4103 72.3716C38.7257 72.1701 39.1769 72.0693 39.7639 72.0693C40.2895 72.0693 40.7758 72.2008 41.2226 72.4636C41.6694 72.7177 42.0286 73.0944 42.3002 73.5938C42.5718 74.0931 42.7076 74.6977 42.7076 75.4073V75.6176C42.7076 76.3272 42.5718 76.9317 42.3002 77.4311C42.0286 77.9305 41.6694 78.3116 41.2226 78.5744C40.7758 78.8285 40.2895 78.9555 39.7639 78.9555C39.3696 78.9555 39.0367 78.9074 38.7651 78.811C38.5023 78.7234 38.2876 78.6095 38.1212 78.4693C37.9635 78.3204 37.8364 78.1714 37.74 78.0225H37.5035V81.3999H35.8477ZM39.2645 77.51C39.7814 77.51 40.2063 77.3479 40.5392 77.0237C40.8809 76.6908 41.0517 76.2089 41.0517 75.5781V75.4467C41.0517 74.8159 40.8809 74.3385 40.5392 74.0143C40.1975 73.6814 39.7726 73.5149 39.2645 73.5149C38.7563 73.5149 38.3314 73.6814 37.9897 74.0143C37.6481 74.3385 37.4772 74.8159 37.4772 75.4467V75.5781C37.4772 76.2089 37.6481 76.6908 37.9897 77.0237C38.3314 77.3479 38.7563 77.51 39.2645 77.51Z" fill="white"/>
<path d="M31.0338 78.9555C30.3854 78.9555 29.8028 78.8241 29.2859 78.5613C28.769 78.2985 28.3616 77.9174 28.0638 77.418C27.7659 76.9186 27.6169 76.3185 27.6169 75.6176V75.4073C27.6169 74.7064 27.7659 74.1063 28.0638 73.6069C28.3616 73.1075 28.769 72.7264 29.2859 72.4636C29.8028 72.2008 30.3854 72.0693 31.0338 72.0693C31.6821 72.0693 32.2647 72.2008 32.7816 72.4636C33.2985 72.7264 33.7059 73.1075 34.0038 73.6069C34.3016 74.1063 34.4506 74.7064 34.4506 75.4073V75.6176C34.4506 76.3185 34.3016 76.9186 34.0038 77.418C33.7059 77.9174 33.2985 78.2985 32.7816 78.5613C32.2647 78.8241 31.6821 78.9555 31.0338 78.9555ZM31.0338 77.4837C31.5419 77.4837 31.9624 77.3216 32.2954 76.9974C32.6283 76.6645 32.7947 76.1914 32.7947 75.5781V75.4467C32.7947 74.8335 32.6283 74.3647 32.2954 74.0406C31.9712 73.7077 31.5507 73.5412 31.0338 73.5412C30.5256 73.5412 30.1051 73.7077 29.7722 74.0406C29.4392 74.3647 29.2728 74.8335 29.2728 75.4467V75.5781C29.2728 76.1914 29.4392 76.6645 29.7722 76.9974C30.1051 77.3216 30.5256 77.4837 31.0338 77.4837Z" fill="white"/>
<path d="M23.0842 78.7716V72.2533H24.7138V72.9893H24.9503C25.0467 72.7264 25.2044 72.5337 25.4234 72.411C25.6512 72.2884 25.9141 72.2271 26.2119 72.2271H27.0004V73.6989H26.1856C25.7651 73.6989 25.4191 73.8128 25.1475 74.0406C24.8759 74.2596 24.7401 74.6013 24.7401 75.0656V78.7716H23.0842Z" fill="white"/>
<path d="M17.6015 78.8768C17.0934 78.8768 16.6466 78.7629 16.2611 78.5351C15.8843 78.2986 15.5908 77.9744 15.3806 77.5626C15.1703 77.1509 15.0652 76.6778 15.0652 76.1433V72.2534H16.721V76.0119C16.721 76.5025 16.8393 76.8705 17.0759 77.1158C17.3212 77.3611 17.6672 77.4838 18.114 77.4838C18.6222 77.4838 19.0164 77.3173 19.2968 76.9844C19.5771 76.6427 19.7173 76.1696 19.7173 75.5651V72.2534H21.3732V78.7717H19.7436V77.9175H19.507C19.4019 78.1365 19.2048 78.3511 18.9157 78.5614C18.6266 78.7717 18.1885 78.8768 17.6015 78.8768Z" fill="white"/>
<path d="M7.91992 78.7716V69.5725H13.8336V71.1495H9.65461V73.3442H13.4657V74.9211H9.65461V77.1946H13.9125V78.7716H7.91992Z" fill="white"/>
<path d="M56.9119 68.3182V66.8726H60.4601C60.7054 66.8726 60.8281 66.7412 60.8281 66.4784V64.8357H60.5915C60.5214 64.9846 60.4119 65.1335 60.263 65.2825C60.114 65.4314 59.9125 65.5541 59.6585 65.6504C59.4044 65.7468 59.0802 65.795 58.686 65.795C58.1778 65.795 57.731 65.6811 57.3455 65.4533C56.9688 65.2168 56.6753 64.8926 56.4651 64.4808C56.2548 64.0691 56.1497 63.596 56.1497 63.0615V59.1716H57.8055V62.9301C57.8055 63.4208 57.9238 63.7887 58.1603 64.034C58.4056 64.2793 58.7517 64.402 59.1985 64.402C59.7067 64.402 60.1009 64.2355 60.3813 63.9026C60.6616 63.5609 60.8018 63.0878 60.8018 62.4833V59.1716H62.4576V66.8463C62.4576 67.2931 62.3262 67.648 62.0634 67.9108C61.8006 68.1824 61.4501 68.3182 61.0121 68.3182H56.9119Z" fill="white"/>
<path d="M50.9395 65.8738C50.4751 65.8738 50.059 65.7949 49.691 65.6372C49.323 65.4707 49.0295 65.2342 48.8105 64.9276C48.6003 64.6122 48.4951 64.2311 48.4951 63.7842C48.4951 63.3374 48.6003 62.9651 48.8105 62.6672C49.0295 62.3606 49.3274 62.1328 49.7041 61.9838C50.0896 61.8261 50.5277 61.7473 51.0183 61.7473H52.8056V61.3793C52.8056 61.0727 52.7092 60.823 52.5164 60.6302C52.3237 60.4287 52.0171 60.328 51.5965 60.328C51.1848 60.328 50.8781 60.4244 50.6766 60.6171C50.4751 60.8011 50.3437 61.042 50.2824 61.3399L48.7579 60.8274C48.8631 60.4945 49.0295 60.1922 49.2573 59.9206C49.4939 59.6402 49.8049 59.4168 50.1904 59.2504C50.5846 59.0752 51.0621 58.9875 51.6228 58.9875C52.4814 58.9875 53.1604 59.2022 53.6598 59.6315C54.1592 60.0608 54.4088 60.6828 54.4088 61.4976V63.9288C54.4088 64.1916 54.5315 64.323 54.7768 64.323H55.3025V65.6898H54.1986C53.8744 65.6898 53.6072 65.6109 53.3969 65.4532C53.1867 65.2955 53.0815 65.0853 53.0815 64.8224V64.8093H52.8318C52.7968 64.9144 52.718 65.0546 52.5953 65.2298C52.4726 65.3963 52.2799 65.5452 52.0171 65.6766C51.7542 65.808 51.395 65.8738 50.9395 65.8738ZM51.2286 64.5333C51.6929 64.5333 52.0696 64.4063 52.3587 64.1522C52.6566 63.8894 52.8056 63.5433 52.8056 63.114V62.9826H51.1366C50.8299 62.9826 50.589 63.0483 50.4138 63.1797C50.2386 63.3111 50.151 63.4951 50.151 63.7317C50.151 63.9682 50.2429 64.161 50.4269 64.3099C50.6109 64.4588 50.8781 64.5333 51.2286 64.5333Z" fill="white"/>
<path d="M38.0005 65.6898L36.7915 56.4907H38.5131L39.4067 64.4808H39.6432L40.7997 56.4907H43.796L44.9524 64.4808H45.189L46.0826 56.4907H47.8042L46.5951 65.6898H43.5989L42.4161 57.5158H42.1796L40.9968 65.6898H38.0005Z" fill="white"/>
<path d="M30.0603 68.3182V66.8726H33.6085C33.8539 66.8726 33.9765 66.7412 33.9765 66.4784V64.8357H33.74C33.6699 64.9846 33.5604 65.1335 33.4114 65.2825C33.2625 65.4314 33.061 65.5541 32.8069 65.6504C32.5528 65.7468 32.2287 65.795 31.8344 65.795C31.3263 65.795 30.8795 65.6811 30.494 65.4533C30.1173 65.2168 29.8238 64.8926 29.6135 64.4808C29.4032 64.0691 29.2981 63.596 29.2981 63.0615V59.1716H30.9539V62.9301C30.9539 63.4208 31.0722 63.7887 31.3088 64.034C31.5541 64.2793 31.9001 64.402 32.3469 64.402C32.8551 64.402 33.2493 64.2355 33.5297 63.9026C33.81 63.5609 33.9502 63.0878 33.9502 62.4833V59.1716H35.6061V66.8463C35.6061 67.2931 35.4746 67.648 35.2118 67.9108C34.949 68.1824 34.5985 68.3182 34.1605 68.3182H30.0603Z" fill="white"/>
<path d="M25.2975 65.8738C24.4477 65.8738 23.7512 65.6898 23.208 65.3218C22.6648 64.9538 22.3363 64.4282 22.2224 63.7448L23.7468 63.3506C23.8082 63.6572 23.9089 63.8981 24.0491 64.0734C24.198 64.2486 24.3776 64.3756 24.5879 64.4545C24.8069 64.5245 25.0435 64.5596 25.2975 64.5596C25.683 64.5596 25.9678 64.4939 26.1518 64.3625C26.3357 64.2223 26.4277 64.0514 26.4277 63.8499C26.4277 63.6484 26.3401 63.4951 26.1649 63.39C25.9897 63.2761 25.7093 63.1841 25.3238 63.114L24.9559 63.0483C24.5003 62.9607 24.0841 62.8424 23.7074 62.6935C23.3307 62.5358 23.0284 62.3211 22.8006 62.0495C22.5729 61.778 22.459 61.4275 22.459 60.9982C22.459 60.3499 22.6955 59.8549 23.1686 59.5132C23.6417 59.1628 24.2637 58.9875 25.0347 58.9875C25.7619 58.9875 26.3664 59.1496 26.8483 59.4738C27.3301 59.7979 27.6455 60.2229 27.7945 60.7485L26.2569 61.2216C26.1868 60.8887 26.0422 60.6522 25.8232 60.512C25.6129 60.3718 25.3501 60.3017 25.0347 60.3017C24.7193 60.3017 24.4784 60.3587 24.3119 60.4726C24.1455 60.5777 24.0622 60.7266 24.0622 60.9194C24.0622 61.1296 24.1498 61.2873 24.3251 61.3925C24.5003 61.4888 24.7368 61.5633 25.0347 61.6159L25.4027 61.6816C25.8933 61.7692 26.3357 61.8875 26.73 62.0364C27.133 62.1766 27.4484 62.3825 27.6762 62.6541C27.9127 62.9169 28.031 63.2761 28.031 63.7317C28.031 64.415 27.7813 64.9451 27.2819 65.3218C26.7913 65.6898 26.1298 65.8738 25.2975 65.8738Z" fill="white"/>
<path d="M17.1995 65.8738C16.7351 65.8738 16.319 65.7949 15.951 65.6372C15.583 65.4707 15.2896 65.2342 15.0705 64.9276C14.8603 64.6122 14.7551 64.2311 14.7551 63.7842C14.7551 63.3374 14.8603 62.9651 15.0705 62.6672C15.2896 62.3606 15.5874 62.1328 15.9642 61.9838C16.3496 61.8261 16.7877 61.7473 17.2783 61.7473H19.0656V61.3793C19.0656 61.0727 18.9692 60.823 18.7765 60.6302C18.5837 60.4287 18.2771 60.328 17.8565 60.328C17.4448 60.328 17.1381 60.4244 16.9366 60.6171C16.7351 60.8011 16.6037 61.042 16.5424 61.3399L15.018 60.8274C15.1231 60.4945 15.2896 60.1922 15.5173 59.9206C15.7539 59.6402 16.0649 59.4168 16.4504 59.2504C16.8446 59.0752 17.3221 58.9875 17.8828 58.9875C18.7414 58.9875 19.4204 59.2022 19.9198 59.6315C20.4192 60.0608 20.6688 60.6828 20.6688 61.4976V63.9288C20.6688 64.1916 20.7915 64.323 21.0368 64.323H21.5625V65.6898H20.4586C20.1344 65.6898 19.8672 65.6109 19.6569 65.4532C19.4467 65.2955 19.3415 65.0853 19.3415 64.8224V64.8093H19.0919C19.0568 64.9144 18.978 65.0546 18.8553 65.2298C18.7327 65.3963 18.5399 65.5452 18.2771 65.6766C18.0142 65.808 17.655 65.8738 17.1995 65.8738ZM17.4886 64.5333C17.9529 64.5333 18.3296 64.4063 18.6188 64.1522C18.9166 63.8894 19.0656 63.5433 19.0656 63.114V62.9826H17.3966C17.09 62.9826 16.849 63.0483 16.6738 63.1797C16.4986 63.3111 16.411 63.4951 16.411 63.7317C16.411 63.9682 16.503 64.161 16.6869 64.3099C16.8709 64.4588 17.1381 64.5333 17.4886 64.5333Z" fill="white"/>
<path d="M7.97803 65.6898V56.4907H13.8918V58.0677H9.71272V60.2624H13.5238V61.8394H9.71272V64.1129H13.9706V65.6898H7.97803Z" fill="white"/>
<path d="M50.3678 6.5437C50.6771 6.23442 51.1785 6.23445 51.4878 6.54374L56.5281 11.5839C56.8374 11.8932 56.8374 12.3947 56.5281 12.704L51.4878 17.7443C51.1785 18.0535 50.6771 18.0536 50.3678 17.7443C50.0585 17.435 50.0585 16.9336 50.3678 16.6243L54.056 12.9359L14.4019 12.936C14.0317 14.8875 12.3188 16.3646 10.259 16.368C7.92616 16.3718 6.0319 14.4838 6.02805 12.151C6.02421 9.81811 7.91224 7.92385 10.2451 7.92C12.3096 7.9166 14.0306 9.39497 14.4018 11.352L54.0559 11.352L50.3677 7.66381C50.0584 7.35451 50.0585 6.85299 50.3678 6.5437Z" fill="white"/>
<path d="M79.9781 13.3683C79.7685 13.3683 79.581 13.3252 79.4157 13.2389C79.2533 13.1527 79.1248 13.0189 79.0304 12.8375C78.9388 12.6561 78.8931 12.4241 78.8931 12.1416C78.8931 11.8472 78.9418 11.6078 79.0392 11.4235C79.1366 11.2391 79.268 11.1038 79.4334 11.0175C79.6017 10.9313 79.7921 10.8882 80.0047 10.8882C80.1257 10.8882 80.2424 10.9016 80.3546 10.9283C80.4668 10.9521 80.5583 10.9819 80.6291 11.0175L80.5096 11.3432C80.4387 11.3164 80.356 11.2911 80.2616 11.2673C80.1671 11.2435 80.0785 11.2317 79.9958 11.2317C79.8364 11.2317 79.705 11.2658 79.6017 11.3342C79.4983 11.4026 79.4216 11.5037 79.3714 11.6376C79.3212 11.7714 79.2961 11.9379 79.2961 12.1372C79.2961 12.3275 79.3212 12.4895 79.3714 12.6234C79.4216 12.7572 79.4969 12.8583 79.5972 12.9267C79.6976 12.9951 79.8231 13.0293 79.9737 13.0293C80.1036 13.0293 80.2173 13.0159 80.3147 12.9891C80.4151 12.9624 80.5066 12.9297 80.5893 12.891V13.2389C80.5096 13.2806 80.421 13.3118 80.3236 13.3326C80.2291 13.3564 80.1139 13.3683 79.9781 13.3683Z" fill="white"/>
<path d="M81.7275 12.1282C81.7275 11.2085 80.9819 10.463 80.0623 10.463C79.1426 10.463 78.3971 11.2085 78.3971 12.1282C78.3971 13.0479 79.1426 13.7934 80.0623 13.7934V14.1831C78.9274 14.1831 78.0073 13.2631 78.0073 12.1282C78.0073 10.9933 78.9274 10.0732 80.0623 10.0732C81.1972 10.0732 82.1172 10.9933 82.1172 12.1282C82.1172 13.2631 81.1972 14.1831 80.0623 14.1831V13.7934C80.9819 13.7934 81.7275 13.0479 81.7275 12.1282Z" fill="white"/>
<path d="M86.3868 86.9524V88H1.6132V86.9524H86.3868ZM86.9514 86.3883V1.61172C86.9514 1.30018 86.6986 1.04762 86.3868 1.04762H1.6132C1.30137 1.04762 1.04858 1.30018 1.04858 1.61172V86.3883C1.04858 86.6998 1.30137 86.9524 1.6132 86.9524V88C0.736187 88 0.022653 87.3008 0.000551386 86.4299L0 86.3883V1.61172C0 0.735511 0.699843 0.0226321 1.57153 0.000550881L1.6132 0H86.3868L86.4285 0.000550881C87.3002 0.0226331 88 0.735512 88 1.61172V86.3883C88 87.2784 87.2777 88 86.3868 88V86.9524C86.6986 86.9524 86.9514 86.6998 86.9514 86.3883Z" fill="white"/>
</g>
<defs>
<clipPath id="clip0_77_17747">
<rect width="88" height="88" rx="4" fill="white"/>
</clipPath>
</defs>
</svg>
